<svg width="125" height="125" viewBox="0 0 125 125" fill="none" xmlns="http://www.w3.org/2000/svg">
<rect x="0.934448" y="0.934448" width="124" height="124" rx="50" fill="#FCE7F3"/>
<path d="M35.4024 97.4344V30.2344H64.4904C70.5064 30.2344 75.6905 31.2264 80.0425 33.2104C84.3945 35.1304 87.7545 37.9144 90.1225 41.5624C92.4905 45.2104 93.6745 49.5624 93.6745 54.6184C93.6745 59.6104 92.4905 63.9304 90.1225 67.5784C87.7545 71.1624 84.3945 73.9144 80.0425 75.8344C75.6905 77.7544 70.5064 78.7144 64.4904 78.7144H44.0424L50.9544 71.8984V97.4344H35.4024ZM78.1224 97.4344L61.3224 73.0504H77.9305L94.9224 97.4344H78.1224ZM50.9544 73.6264L44.0424 66.3304H63.6264C68.4264 66.3304 72.0105 65.3064 74.3785 63.2584C76.7465 61.1464 77.9305 58.2664 77.9305 54.6184C77.9305 50.9064 76.7465 48.0264 74.3785 45.9784C72.0105 43.9304 68.4264 42.9064 63.6264 42.9064H44.0424L50.9544 35.5144V73.6264Z" fill="#1D4ED8"/>
</svg>
