<svg width="1308" height="754" viewBox="0 0 1308 754" fill="none" xmlns="http://www.w3.org/2000/svg">
<g filter="url(#filter0_f_19_817)">
<path d="M1082.05 168.141C963.72 232.786 735.093 205.818 635.57 184.253C630.364 110.526 620.504 -38.4902 622.708 -44.7399C625.464 -52.5521 757.753 -59.8759 985.584 -60.6083C1213.42 -61.3407 1219.85 -51.5755 1241.43 -27.1626C1263.02 -2.74975 1229.95 87.3338 1082.05 168.141Z" fill="#F472B6"/>
</g>
<g filter="url(#filter1_f_19_817)">
<path d="M804.27 278.074C714.617 309.872 541.391 296.606 465.985 285.999C462.04 249.734 454.569 176.436 456.24 173.362C458.328 169.52 558.56 165.917 731.183 165.557C903.806 165.197 908.678 170 925.036 182.008C941.393 194.016 916.335 238.327 804.27 278.074Z" fill="#C026D3"/>
</g>
<g filter="url(#filter2_f_19_817)">
<path d="M1113.65 15.9184C1190 -72.5177 1370.35 -104.49 1450.99 -109.422C1470.9 -43.2814 1510.65 90.5644 1510.32 96.8265C1509.9 104.654 1410.5 144.124 1236.75 201.234C1062.99 258.343 1055.97 251.005 1034.21 234.025C1012.45 217.046 1018.22 126.464 1113.65 15.9184Z" fill="#2563EB"/>
</g>
<defs>
<filter id="filter0_f_19_817" x="166.392" y="-516.646" width="1537.04" height="1181.3" filterUnits="userSpaceOnUse" color-interpolation-filters="sRGB">
<feFlood flood-opacity="0" result="BackgroundImageFix"/>
<feBlend mode="normal" in="SourceGraphic" in2="BackgroundImageFix" result="shape"/>
<feGaussianBlur stdDeviation="228" result="effect1_foregroundBlur_19_817"/>
</filter>
<filter id="filter1_f_19_817" x="0" y="-290.462" width="1385.58" height="1044.46" filterUnits="userSpaceOnUse" color-interpolation-filters="sRGB">
<feFlood flood-opacity="0" result="BackgroundImageFix"/>
<feBlend mode="normal" in="SourceGraphic" in2="BackgroundImageFix" result="shape"/>
<feGaussianBlur stdDeviation="228" result="effect1_foregroundBlur_19_817"/>
</filter>
<filter id="filter2_f_19_817" x="567.732" y="-565.422" width="1398.59" height="1267.69" filterUnits="userSpaceOnUse" color-interpolation-filters="sRGB">
<feFlood flood-opacity="0" result="BackgroundImageFix"/>
<feBlend mode="normal" in="SourceGraphic" in2="BackgroundImageFix" result="shape"/>
<feGaussianBlur stdDeviation="228" result="effect1_foregroundBlur_19_817"/>
</filter>
</defs>
</svg>
